<?xml version="1.0" encoding="utf-8"?>
<!-- Created by UniConvertor 2.0rc5 (https://sk1project.net/) -->
<svg xmlns="http://www.w3.org/2000/svg" height="200.0px" width="200.0px" version="1.1" xmlns:xlink="http://www.w3.org/1999/xlink" id="1d943336-094a-11ef-8c31-abb20846a616">

<g>
	<path style="fill:#009cf5;" d="M 98.45,100.9 M 23.4,100.9 C 23.4,142.342 57.008,175.95 98.45,175.95 139.892,175.95 173.5,142.342 173.5,100.9 173.5,59.458 139.892,25.85 98.45,25.85 57.008,25.85 23.4,59.458 23.4,100.9 Z" />
	<path style="fill:#ff4c3a;" d="M 145.725,52.825 L 92.275,94.75 104.6,107.075 146.5,53.625 C 146.95,53.1 146.25,52.425 145.725,52.825 Z" />
	<path style="fill:#ffffff;" d="M 51.175,148.975 L 104.625,107.075 92.3,94.75 50.375,148.175 C 49.95,148.7 50.625,149.375 51.175,148.975 Z" />
	<path style="fill:#ffffff;" d="M 98.675,30.3 C 98.05,30.3 97.525,30.8 97.525,31.45 L 97.525,41.9 C 97.525,42.525 98.025,43.05 98.675,43.05 99.325,43.05 99.825,42.55 99.825,41.9 L 99.825,31.45 C 99.8,30.825 99.3,30.3 98.675,30.3 Z M 86.4,31.35 C 85.775,31.45 85.35,32.05 85.475,32.675 L 87.3,42.975 C 87.4,43.6 88.0,44.025 88.625,43.9 89.25,43.8 89.675,43.2 89.55,42.575 L 87.725,32.275 C 87.625,31.65 87.025,31.225 86.4,31.35 Z M 77.4,45.775 C 77.625,46.375 78.275,46.675 78.875,46.45 79.475,46.225 79.775,45.575 79.55,44.975 L 75.975,35.15 C 75.75,34.55 75.1,34.25 74.5,34.475 73.9,34.7 73.6,35.35 73.825,35.95 L 77.4,45.775 Z M 68.15,50.275 C 68.475,50.825 69.175,51.0 69.7,50.7 70.225,50.4 70.425,49.675 70.125,49.15 L 64.9,40.1 C 64.575,39.55 63.875,39.375 63.35,39.675 62.8,40.0 62.625,40.7 62.925,41.225 L 68.15,50.275 Z M 59.825,56.3 C 60.225,56.775 60.95,56.85 61.425,56.45 61.9,56.05 61.975,55.325 61.575,54.85 L 54.85,46.85 C 54.45,46.375 53.725,46.3 53.25,46.7 52.775,47.1 52.7,47.825 53.1,48.3 L 59.825,56.3 Z M 52.675,63.7 C 53.15,64.1 53.875,64.05 54.275,63.55 54.675,63.075 54.625,62.35 54.125,61.95 L 46.125,55.225 C 45.65,54.825 44.925,54.875 44.525,55.375 44.125,55.85 44.175,56.575 44.675,56.975 L 52.675,63.7 Z M 37.85,66.975 L 46.9,72.2 C 47.45,72.525 48.15,72.325 48.45,71.775 48.775,71.225 48.575,70.525 48.025,70.2 L 38.975,65.0 C 38.425,64.675 37.725,64.875 37.425,65.425 37.1,65.95 37.3,66.65 37.85,66.975 Z M 32.875,78.025 L 42.7,81.6 C 43.3,81.825 43.95,81.5 44.175,80.925 44.4,80.325 44.075,79.675 43.5,79.45 L 33.675,75.875 C 33.075,75.65 32.425,75.975 32.2,76.55 31.975,77.15 32.275,77.8 32.875,78.025 Z M 40.6,89.325 L 30.3,87.5 C 29.675,87.4 29.075,87.8 28.975,88.425 28.875,89.05 29.275,89.65 29.9,89.75 L 40.2,91.575 C 40.825,91.675 41.425,91.275 41.525,90.65 41.625,90.025 41.225,89.425 40.6,89.325 Z M 39.45,99.525 L 29.0,99.525 C 28.375,99.525 27.85,100.025 27.85,100.675 27.85,101.3 28.35,101.825 29.0,101.825 L 39.45,101.825 C 40.075,101.825 40.6,101.325 40.6,100.675 40.6,100.05 40.1,99.525 39.45,99.525 Z M 40.125,109.8 L 29.825,111.625 C 29.2,111.725 28.775,112.325 28.9,112.95 29.0,113.575 29.6,114.0 30.225,113.875 L 40.525,112.05 C 41.15,111.95 41.575,111.35 41.45,110.725 41.325,110.1 40.75,109.7 40.125,109.8 Z M 42.55,119.8 L 32.725,123.375 C 32.125,123.6 31.825,124.25 32.05,124.85 32.275,125.45 32.925,125.75 33.525,125.525 L 43.35,121.95 C 43.95,121.725 44.25,121.075 44.025,120.475 43.8,119.875 43.15,119.575 42.55,119.8 Z M 46.675,129.2 L 37.625,134.425 C 37.075,134.75 36.9,135.45 37.2,136.0 37.525,136.55 38.225,136.725 38.775,136.425 L 47.825,131.2 C 48.375,130.875 48.55,130.175 48.25,129.625 47.925,129.075 47.225,128.9 46.675,129.2 Z M 52.375,137.775 L 44.375,144.5 C 43.9,144.9 43.825,145.625 44.225,146.1 44.625,146.575 45.35,146.65 45.825,146.25 L 53.825,139.525 C 54.3,139.125 54.375,138.4 53.975,137.925 53.6,137.425 52.875,137.375 52.375,137.775 Z M 59.475,145.2 L 52.75,153.2 C 52.35,153.675 52.4,154.4 52.9,154.8 53.375,155.2 54.1,155.15 54.5,154.65 L 61.225,146.65 C 61.625,146.175 61.575,145.45 61.075,145.05 60.625,144.675 59.9,144.725 59.475,145.2 Z M 67.775,151.3 L 62.55,160.35 C 62.225,160.9 62.425,161.6 62.975,161.9 63.525,162.225 64.225,162.025 64.55,161.475 L 69.775,152.425 C 70.1,151.875 69.9,151.175 69.35,150.875 68.8,150.575 68.1,150.75 67.775,151.3 Z M 77.0,155.875 L 73.425,165.7 C 73.2,166.3 73.525,166.95 74.1,167.175 74.7,167.4 75.35,167.075 75.575,166.5 L 79.15,156.675 C 79.375,156.075 79.05,155.425 78.475,155.2 77.875,154.975 77.2,155.275 77.0,155.875 Z M 85.975,170.375 C 86.6,170.475 87.2,170.075 87.3,169.45 L 89.125,159.15 C 89.225,158.525 88.825,157.925 88.2,157.825 87.575,157.725 86.975,158.125 86.875,158.75 L 85.05,169.05 C 84.925,169.675 85.35,170.275 85.975,170.375 Z M 98.225,171.5 C 98.85,171.5 99.375,171.0 99.375,170.35 L 99.375,159.9 C 99.375,159.275 98.875,158.75 98.225,158.75 97.6,158.75 97.075,159.25 97.075,159.9 L 97.075,170.35 C 97.075,170.975 97.6,171.5 98.225,171.5 Z M 107.35,159.225 L 109.175,169.525 C 109.275,170.15 109.875,170.575 110.5,170.45 111.125,170.35 111.55,169.75 111.425,169.125 L 109.6,158.825 C 109.5,158.2 108.9,157.775 108.275,157.9 107.65,158.0 107.25,158.6 107.35,159.225 Z M 117.35,156.8 L 120.925,166.625 C 121.15,167.225 121.8,167.525 122.4,167.3 123.0,167.075 123.3,166.425 123.075,165.825 L 119.5,156.0 C 119.275,155.4 118.625,155.1 118.025,155.325 117.425,155.55 117.125,156.2 117.35,156.8 Z M 126.775,152.675 L 132.0,161.725 C 132.325,162.275 133.025,162.45 133.575,162.15 134.125,161.825 134.3,161.125 134.0,160.575 L 128.75,151.525 C 128.425,150.975 127.725,150.8 127.175,151.1 126.625,151.425 126.45,152.125 126.775,152.675 Z M 135.325,146.95 L 142.05,154.95 C 142.45,155.425 143.175,155.5 143.65,155.1 144.125,154.7 144.2,153.975 143.8,153.5 L 137.075,145.5 C 136.675,145.025 135.95,144.95 135.475,145.35 134.975,145.75 134.925,146.475 135.325,146.95 Z M 142.75,139.85 L 150.75,146.575 C 151.225,146.975 151.95,146.925 152.35,146.425 152.75,145.95 152.7,145.225 152.2,144.825 L 144.2,138.1 C 143.725,137.7 143.0,137.75 142.6,138.25 142.225,138.725 142.275,139.45 142.75,139.85 Z M 148.85,131.575 L 157.9,136.8 C 158.45,137.125 159.15,136.925 159.475,136.375 159.8,135.825 159.6,135.125 159.05,134.825 L 150.0,129.6 C 149.45,129.275 148.75,129.475 148.425,130.025 148.125,130.55 148.3,131.25 148.85,131.575 Z M 153.425,122.35 L 163.25,125.925 C 163.85,126.15 164.5,125.825 164.725,125.25 164.95,124.65 164.625,124.0 164.05,123.775 L 154.225,120.2 C 153.625,119.975 152.975,120.3 152.75,120.875 152.525,121.475 152.825,122.125 153.425,122.35 Z M 156.3,112.475 L 166.6,114.3 C 167.225,114.4 167.825,114.0 167.925,113.375 168.025,112.75 167.625,112.15 167.0,112.05 L 156.7,110.225 C 156.075,110.125 155.475,110.525 155.375,111.15 155.275,111.775 155.675,112.375 156.3,112.475 Z M 156.3,101.125 C 156.3,101.75 156.8,102.275 157.45,102.275 L 167.9,102.275 C 168.525,102.275 169.05,101.775 169.05,101.125 169.05,100.5 168.55,99.975 167.9,99.975 L 157.45,99.975 C 156.8,99.975 156.3,100.475 156.3,101.125 Z M 156.775,92.0 L 167.075,90.175 C 167.7,90.075 168.125,89.475 168.0,88.85 167.9,88.225 167.3,87.8 166.675,87.925 L 156.375,89.75 C 155.75,89.85 155.325,90.45 155.45,91.075 155.55,91.7 156.15,92.1 156.775,92.0 Z M 154.35,82.0 L 164.175,78.425 C 164.775,78.2 165.075,77.55 164.85,76.95 164.625,76.35 163.975,76.05 163.375,76.275 L 153.55,79.85 C 152.95,80.075 152.65,80.725 152.875,81.325 153.1,81.9 153.75,82.225 154.35,82.0 Z M 150.225,72.575 L 159.275,67.35 C 159.825,67.025 160.0,66.325 159.7,65.8 159.375,65.25 158.675,65.075 158.125,65.375 L 149.075,70.6 C 148.525,70.925 148.35,71.625 148.65,72.175 148.975,72.7 149.675,72.9 150.225,72.575 Z M 144.5,64.025 L 152.5,57.3 C 152.975,56.9 153.05,56.175 152.65,55.7 152.25,55.225 151.525,55.15 151.05,55.55 L 143.05,62.275 C 142.575,62.675 142.5,63.4 142.9,63.875 143.3,64.375 144.025,64.425 144.5,64.025 Z M 137.4,56.575 L 144.125,48.575 C 144.525,48.1 144.475,47.375 143.975,46.975 143.5,46.575 142.775,46.625 142.375,47.125 L 135.65,55.125 C 135.25,55.6 135.3,56.325 135.8,56.725 136.275,57.125 137.0,57.075 137.4,56.575 Z M 129.125,50.5 L 134.35,41.45 C 134.675,40.9 134.475,40.2 133.925,39.9 133.375,39.575 132.675,39.775 132.35,40.325 L 127.125,49.375 C 126.8,49.925 127.0,50.625 127.55,50.925 128.1,51.225 128.8,51.05 129.125,50.5 Z M 119.9,45.925 L 123.475,36.1 C 123.7,35.5 123.375,34.85 122.8,34.625 122.2,34.4 121.55,34.725 121.325,35.3 L 117.75,45.15 C 117.525,45.75 117.85,46.4 118.425,46.625 119.025,46.825 119.675,46.525 119.9,45.925 Z M 108.7,43.975 C 109.325,44.075 109.925,43.675 110.025,43.05 L 111.85,32.75 C 111.95,32.125 111.55,31.525 110.925,31.425 110.3,31.325 109.7,31.725 109.6,32.35 L 107.775,42.65 C 107.675,43.275 108.075,43.85 108.7,43.975 Z M 53.425,56.725 C 53.9,57.2 54.7,57.2 55.175,56.725 55.65,56.25 55.65,55.45 55.175,54.975 L 51.05,50.85 C 50.575,50.375 49.775,50.375 49.3,50.85 48.825,51.325 48.825,52.125 49.3,52.6 L 53.425,56.725 Z M 46.45,65.2 C 47.025,65.6 47.8,65.45 48.175,64.9 48.575,64.325 48.425,63.55 47.875,63.175 L 43.1,59.825 C 42.525,59.425 41.75,59.575 41.375,60.125 41.0,60.675 41.125,61.475 41.675,61.85 L 46.45,65.2 Z M 35.75,72.3 L 41.05,74.775 C 41.675,75.075 42.425,74.8 42.7,74.175 43.0,73.55 42.725,72.8 42.1,72.525 L 36.8,70.05 C 36.175,69.75 35.425,70.025 35.15,70.65 34.85,71.275 35.125,72.025 35.75,72.3 Z M 38.025,82.75 L 32.375,81.25 C 31.7,81.075 31.025,81.475 30.85,82.125 30.675,82.8 31.075,83.475 31.725,83.65 L 37.375,85.15 C 38.05,85.325 38.725,84.925 38.9,84.275 39.075,83.6 38.675,82.925 38.025,82.75 Z M 35.775,93.5 L 29.95,93.0 C 29.275,92.95 28.65,93.45 28.6,94.125 28.55,94.8 29.05,95.425 29.725,95.475 L 35.55,95.975 C 36.225,96.025 36.85,95.525 36.9,94.85 36.975,94.175 36.475,93.575 35.775,93.5 Z M 35.45,104.5 L 29.625,105.0 C 28.95,105.05 28.425,105.675 28.5,106.35 28.55,107.025 29.175,107.55 29.85,107.475 L 35.675,106.975 C 36.35,106.925 36.875,106.3 36.8,105.625 36.75,104.95 36.15,104.45 35.45,104.5 Z M 37.375,115.375 L 31.725,116.875 C 31.05,117.05 30.675,117.725 30.85,118.4 31.025,119.075 31.7,119.45 32.375,119.275 L 38.025,117.775 C 38.7,117.6 39.075,116.925 38.9,116.25 38.725,115.6 38.05,115.2 37.375,115.375 Z M 40.475,125.825 L 35.175,128.3 C 34.55,128.6 34.275,129.325 34.575,129.95 34.875,130.575 35.6,130.85 36.225,130.55 L 41.525,128.075 C 42.15,127.775 42.425,127.05 42.125,126.425 41.85,125.8 41.1,125.55 40.475,125.825 Z M 45.7,135.525 L 40.925,138.875 C 40.35,139.275 40.225,140.05 40.625,140.6 41.025,141.175 41.8,141.3 42.35,140.9 L 47.125,137.55 C 47.7,137.15 47.825,136.375 47.425,135.825 47.025,135.25 46.25,135.125 45.7,135.525 Z M 60.725,151.475 L 57.375,156.25 C 56.975,156.825 57.125,157.6 57.675,157.975 58.25,158.375 59.025,158.225 59.4,157.675 L 62.75,152.9 C 63.15,152.325 63.0,151.55 62.45,151.175 61.9,150.775 61.1,150.9 60.725,151.475 Z M 68.2,164.2 C 68.825,164.5 69.575,164.225 69.85,163.6 L 72.325,158.3 C 72.625,157.675 72.35,156.925 71.725,156.65 71.1,156.35 70.35,156.625 70.075,157.25 L 67.6,162.55 C 67.325,163.175 67.575,163.9 68.2,164.2 Z M 79.65,168.5 C 80.325,168.675 81.0,168.275 81.175,167.625 L 82.675,161.975 C 82.85,161.3 82.45,160.625 81.8,160.45 81.125,160.275 80.45,160.675 80.275,161.325 L 78.775,166.975 C 78.6,167.625 79.0,168.325 79.65,168.5 Z M 91.675,170.725 C 92.35,170.775 92.975,170.275 93.025,169.6 L 93.525,163.775 C 93.575,163.1 93.075,162.475 92.4,162.425 91.725,162.375 91.1,162.875 91.05,163.55 L 90.55,169.375 C 90.5,170.075 91.0,170.675 91.675,170.725 Z M 102.05,163.9 L 102.55,169.725 C 102.6,170.4 103.225,170.925 103.9,170.85 104.575,170.8 105.1,170.175 105.025,169.5 L 104.525,163.675 C 104.475,163.0 103.85,162.475 103.175,162.55 102.5,162.6 102.0,163.2 102.05,163.9 Z M 112.925,162.3 L 114.425,167.95 C 114.6,168.625 115.275,169.0 115.95,168.825 116.625,168.65 117.0,167.975 116.825,167.3 L 115.325,161.65 C 115.15,160.975 114.475,160.6 113.8,160.775 113.15,160.95 112.75,161.65 112.925,162.3 Z M 123.375,158.85 L 125.85,164.15 C 126.15,164.775 126.875,165.05 127.5,164.75 128.125,164.45 128.4,163.725 128.1,163.1 L 125.625,157.8 C 125.325,157.175 124.6,156.9 123.975,157.2 123.35,157.5 123.1,158.225 123.375,158.85 Z M 133.075,153.65 L 136.425,158.425 C 136.825,159.0 137.6,159.125 138.15,158.725 138.725,158.325 138.85,157.55 138.45,157.0 L 135.1,152.225 C 134.7,151.65 133.925,151.525 133.375,151.925 132.8,152.3 132.675,153.075 133.075,153.65 Z M 141.7,146.825 L 145.825,150.95 C 146.3,151.425 147.1,151.425 147.575,150.95 148.05,150.475 148.05,149.675 147.575,149.2 L 143.45,145.075 C 142.975,144.6 142.175,144.6 141.7,145.075 141.225,145.55 141.225,146.35 141.7,146.825 Z M 149.025,138.625 L 153.8,141.975 C 154.375,142.375 155.15,142.225 155.525,141.675 155.925,141.1 155.775,140.325 155.225,139.95 L 150.45,136.6 C 149.875,136.2 149.1,136.35 148.725,136.9 148.325,137.45 148.45,138.225 149.025,138.625 Z M 154.8,129.275 L 160.1,131.75 C 160.725,132.05 161.475,131.775 161.75,131.15 162.05,130.525 161.775,129.775 161.15,129.5 L 155.85,127.025 C 155.225,126.725 154.475,127.0 154.2,127.625 153.9,128.25 154.175,128.975 154.8,129.275 Z M 158.875,119.05 L 164.525,120.55 C 165.2,120.725 165.875,120.325 166.05,119.675 166.225,119.0 165.825,118.325 165.175,118.15 L 159.525,116.65 C 158.85,116.475 158.175,116.875 158.0,117.525 157.825,118.2 158.2,118.875 158.875,119.05 Z M 161.1,108.275 L 166.925,108.775 C 167.6,108.825 168.225,108.325 168.275,107.65 168.325,106.975 167.825,106.35 167.15,106.3 L 161.325,105.8 C 160.65,105.75 160.025,106.25 159.975,106.925 159.925,107.625 160.425,108.225 161.1,108.275 Z M 161.45,97.3 L 167.275,96.8 C 167.95,96.75 168.475,96.125 168.4,95.45 168.35,94.775 167.725,94.25 167.05,94.325 L 161.225,94.825 C 160.55,94.875 160.025,95.5 160.1,96.175 160.15,96.85 160.75,97.35 161.45,97.3 Z M 159.85,86.4 L 165.5,84.9 C 166.175,84.725 166.55,84.05 166.375,83.375 166.2,82.7 165.525,82.325 164.85,82.5 L 159.2,84.0 C 158.525,84.175 158.15,84.85 158.325,85.525 158.5,86.2 159.2,86.575 159.85,86.4 Z M 156.4,75.975 L 161.7,73.5 C 162.325,73.2 162.6,72.475 162.3,71.85 162.0,71.225 161.275,70.95 160.65,71.25 L 155.35,73.725 C 154.725,74.025 154.45,74.75 154.75,75.375 155.05,75.975 155.775,76.25 156.4,75.975 Z M 151.2,66.275 L 155.975,62.925 C 156.55,62.525 156.675,61.75 156.275,61.2 155.875,60.625 155.1,60.5 154.55,60.9 L 149.775,64.25 C 149.2,64.65 149.075,65.425 149.475,65.975 149.85,66.525 150.625,66.675 151.2,66.275 Z M 136.175,50.325 L 139.525,45.55 C 139.925,44.975 139.775,44.2 139.225,43.825 138.65,43.425 137.875,43.575 137.5,44.125 L 134.15,48.9 C 133.75,49.475 133.9,50.25 134.45,50.625 135.0,51.025 135.775,50.9 136.175,50.325 Z M 128.7,37.6 C 128.075,37.3 127.325,37.575 127.05,38.2 L 124.575,43.5 C 124.275,44.125 124.55,44.875 125.175,45.15 125.8,45.45 126.55,45.175 126.825,44.55 L 129.3,39.25 C 129.575,38.625 129.3,37.875 128.7,37.6 Z M 117.225,33.3 C 116.55,33.125 115.875,33.525 115.7,34.175 L 114.2,39.825 C 114.025,40.5 114.425,41.175 115.075,41.35 115.75,41.525 116.425,41.125 116.6,40.475 L 118.1,34.825 C 118.3,34.175 117.9,33.475 117.225,33.3 Z M 104.475,39.375 C 105.15,39.425 105.775,38.925 105.825,38.25 L 106.325,32.425 C 106.375,31.75 105.875,31.125 105.2,31.075 104.525,31.025 103.9,31.525 103.85,32.2 L 103.35,38.025 C 103.3,38.7 103.8,39.3 104.475,39.375 Z M 92.975,30.95 C 92.3,31.0 91.775,31.625 91.85,32.3 L 92.35,38.125 C 92.4,38.8 93.025,39.325 93.7,39.25 94.375,39.2 94.9,38.575 94.825,37.9 L 94.325,32.075 C 94.275,31.4 93.675,30.9 92.975,30.95 Z M 82.45,33.85 C 82.275,33.175 81.6,32.8 80.925,32.975 80.25,33.15 79.875,33.825 80.05,34.5 L 81.55,40.15 C 81.725,40.825 82.4,41.2 83.075,41.025 83.75,40.85 84.125,40.175 83.95,39.5 L 82.45,33.85 Z M 73.525,42.925 L 71.05,37.625 C 70.75,37.0 70.025,36.725 69.4,37.025 68.775,37.325 68.5,38.05 68.8,38.675 L 71.25,44.0 C 71.55,44.625 72.275,44.9 72.9,44.6 73.525,44.3 73.8,43.55 73.525,42.925 Z M 61.8,49.575 C 62.2,50.15 62.975,50.275 63.525,49.875 64.1,49.475 64.225,48.7 63.825,48.15 L 60.475,43.375 C 60.075,42.8 59.3,42.675 58.75,43.075 58.175,43.475 58.05,44.25 58.45,44.8 L 61.8,49.575 Z" />
</g>
</svg>